<svg width="128"
     height="128"
     xmlns="http://www.w3.org/2000/svg">
  <g>
    <title>background</title>
  </g>
  <g>
    <title>Layer 1</title>
    <path id="svg_1"
          fill="#a441cc"
          d="m42,94.726997l-34,-18.458l0,-7.583l34,-18.457996l0,9.543999l-24.414,12.742001l24.414,12.668999l0,9.543999z" />
    <path id="svg_2"
          fill="#a441cc"
          d="m76.094002,43l-20.700001,62l-8.012001,0l20.616001,-62l8.096001,0z" />
    <path id="svg_3"
          fill="#a441cc"
          d="m119,76.268997l-36,18.458l0,-9.543999l24.412003,-12.705002l-24.412003,-12.705997l0,-9.543999l36,18.457996l0,7.583z" />
    <polygon id="svg_4"
             points="95.8750228881836,17.749996185302734 100.60443115234375,26.395601272583008 109.2500228881836,31.125 100.60443115234375,35.854400634765625 95.8750228881836,44.500003814697266 91.14561462402344,35.854400634765625 82.50001525878906,31.125 91.14561462402344,26.395601272583008 "
             fill="#a441cc" />
    <polygon id="svg_5"
             points="68.25000059604645,6.499995350838049 72.05013748156944,13.449875178456296 78.99999988079071,17.250001811981065 72.05013748156944,21.050130495905478 68.25000059604645,28.000009298323903 64.44986371052346,21.050130495905478 57.49999310970361,17.250001811981065 64.44986371052346,13.449875178456296 "
             fill="#a441cc" />
  </g>
</svg>
