<svg width="16"
     height="16"
     xmlns="http://www.w3.org/2000/svg">
  <g>
    <title>background</title>
  </g>
  <g>
    <title fill="#a441cc">Layer 1</title>
    <path id="svg_1"
          fill="#a441cc"
          d="m5.027107,12.905343l-4.706518,-2.555086l0,-1.049693l4.706518,-2.555083l0,1.321147l-3.379557,1.763836l3.379557,1.753732l0,1.321148z" />
    <path id="svg_2"
          fill="#a441cc"
          d="m9.746635,5.744931l-2.865438,8.582471l-1.109076,0l2.853811,-8.582471l1.120704,0z" />
    <path id="svg_3"
          fill="#a441cc"
          d="m15.685985,10.350257l-4.983373,2.555086l0,-1.321148l3.37928,-1.758716l-3.37928,-1.758852l0,-1.321147l4.983373,2.555083l0,1.049693z" />
    <polygon id="svg_4"
             points="12.676488876342773,2.6543691158294678 13.366247177124023,3.915287971496582 14.627163887023926,4.605045318603516 13.366247177124023,5.294806480407715 12.676488876342773,6.555720806121826 11.986729621887207,5.294806480407715 10.725809097290039,4.605045318603516 11.986729621887207,3.915287971496582 "
             fill="#a441cc" />
    <polygon id="svg_5"
             points="9.274153709411621,0.3911939859390259 9.897784233093262,1.5317199230194092 11.038309097290039,2.1553499698638916 9.897784233093262,2.778980255126953 9.274153709411621,3.9195055961608887 8.650524139404297,2.778980255126953 7.510000228881836,2.1553499698638916 8.650524139404297,1.5317199230194092 "
             fill="#a441cc" />
  </g>
</svg>
